<svg width="739" height="884" viewBox="0 0 739 884" fill="none" xmlns="http://www.w3.org/2000/svg">
<path d="M452.711 3.02045C460.932 -0.206641 470.068 -0.206649 478.289 3.02044L783.298 122.753C791.931 126.141 798.866 132.817 802.58 141.315L927.874 427.983C931.779 436.919 931.779 447.081 927.874 456.017L802.58 742.685C798.866 751.183 791.931 757.859 783.298 761.248L478.289 880.98C470.068 884.207 460.932 884.207 452.711 880.98L147.702 761.248C139.069 757.859 132.134 751.183 128.42 742.685L3.12645 456.017C-0.779452 447.081 -0.779463 436.919 3.12644 427.983L128.42 141.315C132.134 132.817 139.069 126.141 147.702 122.753L452.711 3.02045Z" fill="#683B71"/>
</svg>
