<svg width="447" height="443" viewBox="0 0 447 443" fill="none" xmlns="http://www.w3.org/2000/svg">
<path d="M122.596 2.24105C131.999 -0.527563 142.001 -0.527562 151.404 2.24105L312.665 49.7205C322.668 52.6656 331.527 58.606 338.05 66.7412L434.883 187.513C442.139 196.563 446.093 207.816 446.093 219.416V365.584C446.093 377.184 442.139 388.437 434.883 397.487L338.05 518.259C331.527 526.394 322.668 532.334 312.665 535.279L151.404 582.759C142.001 585.528 131.999 585.528 122.596 582.759L-38.6648 535.279C-48.6675 532.334 -57.5272 526.394 -64.0499 518.259L-160.883 397.487C-168.139 388.437 -172.093 377.184 -172.093 365.584V219.415C-172.093 207.816 -168.139 196.563 -160.883 187.513L-64.05 66.7413C-57.5272 58.606 -48.6675 52.6656 -38.6648 49.7205L122.596 2.24105Z" fill="#FF9900"/>
</svg>
