<svg width="638" height="523" viewBox="0 0 638 523" fill="none" xmlns="http://www.w3.org/2000/svg">
<path d="M85.5623 2.33142C93.2748 -0.466943 101.725 -0.46694 109.438 2.33142L468.976 132.784C477.652 135.932 484.733 142.38 488.679 150.724L634.545 459.195C639.24 469.123 639.002 480.68 633.903 490.407L465.281 812.06C458.914 824.205 446.041 831.514 432.349 830.756L97.5 812.223H-265.354C-278.888 812.223 -291.209 804.42 -296.995 792.185L-439.925 489.923C-444.404 480.451 -444.404 469.471 -439.925 459.999L-293.679 150.724C-289.733 142.38 -282.652 135.932 -273.976 132.784L85.5623 2.33142Z" fill="#71EF6E"/>
</svg>
