<svg width="36" height="36" viewBox="0 0 36 36" fill="none" xmlns="http://www.w3.org/2000/svg">
<path d="M35.9696 17.9849C35.9696 13.215 34.0748 8.64053 30.702 5.26772C27.3292 1.89491 22.7547 8.83157e-05 17.9848 8.85242e-05C13.2149 8.87327e-05 8.64043 1.89491 5.26763 5.26772C1.89482 8.64053 -4.80934e-06 13.215 -4.60084e-06 17.9849C-4.39234e-06 22.7548 1.89482 27.3293 5.26763 30.7021C8.64043 34.0749 13.2149 35.9697 17.9848 35.9697C22.7547 35.9697 27.3292 34.0749 30.702 30.7021C34.0748 27.3293 35.9696 22.7548 35.9696 17.9849V17.9849ZM19.1089 25.8533C19.1089 26.1514 18.9904 26.4373 18.7796 26.6481C18.5688 26.8589 18.2829 26.9773 17.9848 26.9773C17.6867 26.9773 17.4008 26.8589 17.19 26.6481C16.9792 26.4373 16.8608 26.1514 16.8608 25.8533L16.8608 12.83L12.0363 17.6567C11.9318 17.7612 11.8078 17.8441 11.6712 17.9007C11.5347 17.9572 11.3883 17.9863 11.2405 17.9863C11.0927 17.9863 10.9464 17.9572 10.8098 17.9007C10.6733 17.8441 10.5492 17.7612 10.4447 17.6567C10.3402 17.5522 10.2573 17.4281 10.2007 17.2916C10.1441 17.155 10.115 17.0087 10.115 16.8609C10.115 16.7131 10.1441 16.5667 10.2007 16.4302C10.2573 16.2936 10.3402 16.1695 10.4447 16.065L17.189 9.32072C17.2934 9.21604 17.4174 9.13299 17.554 9.07632C17.6906 9.01966 17.837 8.99049 17.9848 8.99049C18.1327 8.99049 18.2791 9.01966 18.4156 9.07632C18.5522 9.13299 18.6762 9.21604 18.7806 9.32072L25.525 16.065C25.6295 16.1695 25.7124 16.2936 25.7689 16.4302C25.8255 16.5667 25.8546 16.7131 25.8546 16.8609C25.8546 17.0087 25.8255 17.155 25.7689 17.2916C25.7124 17.4281 25.6295 17.5522 25.525 17.6567C25.4204 17.7612 25.2964 17.8441 25.1598 17.9007C25.0233 17.9572 24.8769 17.9863 24.7291 17.9863C24.5813 17.9863 24.435 17.9572 24.2984 17.9007C24.1619 17.8441 24.0378 17.7612 23.9333 17.6567L19.1089 12.83L19.1089 25.8533Z" />
</svg>
