<svg width="983" height="871" viewBox="0 0 983 871" fill="none" xmlns="http://www.w3.org/2000/svg">
<path d="M603.869 1.58941C595.686 -0.283472 587.102 0.847389 579.683 4.77576L151.247 231.63C143.075 235.957 136.947 243.342 134.203 252.173L2.40219 676.228C-0.639409 686.014 0.760663 696.642 6.23296 705.306L243.361 1080.76C248.299 1088.58 256.131 1094.12 265.145 1096.19L737.715 1204.34C745.898 1206.21 754.482 1205.08 761.901 1201.15L1190.34 974.3C1198.51 969.973 1204.64 962.587 1207.38 953.757L1339.18 529.701C1342.22 519.915 1340.82 509.288 1335.35 500.624L1098.22 125.172C1093.28 117.353 1085.45 111.807 1076.44 109.744L603.869 1.58941Z" fill="#71EF6E"/>
</svg>
