<svg width="799" height="1080" viewBox="0 0 799 1080" fill="none" xmlns="http://www.w3.org/2000/svg">
<path d="M128.794 623.492C131.417 623.028 134.111 623.749 136.15 625.462L297.463 760.955C299.572 762.727 300.754 765.368 300.67 768.122L294.39 973.308C294.304 976.115 292.913 978.721 290.629 980.354L121.674 1101.14C119.484 1102.71 116.71 1103.21 114.11 1102.52L-90.6449 1047.65C-93.2444 1046.96 -95.3958 1045.13 -96.5092 1042.68L-182.434 853.598C-183.595 851.041 -183.497 848.088 -182.168 845.615L-85.0136 664.778C-83.7096 662.351 -81.3657 660.655 -78.6526 660.175L128.794 623.492Z" fill="#34683F"/>
<path d="M426.095 157.855C426.51 155.224 428.069 152.912 430.352 151.541L532.497 90.2226C534.86 88.8045 537.741 88.5466 540.318 89.5226L648.696 130.579C651.323 131.574 653.334 133.738 654.135 136.43L687.593 248.904C688.361 251.483 687.934 254.271 686.429 256.502L619.375 355.932C617.87 358.164 615.446 359.604 612.767 359.86L495.95 370.991C493.155 371.257 490.395 370.203 488.489 368.141L409.808 283.048C407.937 281.025 407.096 278.257 407.526 275.535L426.095 157.855Z" fill="#52865D"/>
<path d="M610.488 539.9L665.193 502.829L728.687 515.012L763.778 569.313L749.909 633.924L695.205 670.996L631.71 658.812L596.62 604.511L610.488 539.9Z" fill="#2F4835"/>
<path d="M160.198 -165.551C160.121 -169.352 162.44 -172.792 165.994 -174.145L379.495 -255.432C383.213 -256.847 387.42 -255.654 389.84 -252.497L526.222 -74.6168C528.575 -71.5468 528.704 -67.316 526.541 -64.1086L397.335 127.482C395.172 130.689 391.202 132.156 387.473 131.124L171.446 71.3455C167.612 70.2845 164.929 66.8321 164.848 62.8546L160.198 -165.551Z" fill="#6BB67C"/>
</svg>
