<svg width="1111" height="913" viewBox="0 0 1111 913" fill="none" xmlns="http://www.w3.org/2000/svg">
<path d="M743.775 2.45271C750.749 0.207639 758.251 0.207637 765.225 2.45271L1277.35 167.316C1286 170.103 1293.23 176.147 1297.51 184.171L1504.23 572.038C1509.71 582.328 1509.71 594.672 1504.23 604.962L1297.51 992.829C1293.23 1000.85 1286 1006.9 1277.35 1009.68L765.225 1174.55C758.251 1176.79 750.749 1176.79 743.775 1174.55L231.654 1009.68C222.999 1006.9 215.768 1000.85 211.492 992.829L4.77343 604.962C-0.710411 594.672 -0.710413 582.328 4.77343 572.038L211.492 184.171C215.768 176.147 222.999 170.103 231.654 167.316L743.775 2.45271Z" fill="#49084F"/>
</svg>
