<svg width="1587" height="1227" viewBox="0 0 1587 1227" fill="none" xmlns="http://www.w3.org/2000/svg">
<path d="M511.778 -488.081C540.103 -495.882 570.011 -495.882 598.336 -488.081L1076.81 -356.309C1106.14 -348.232 1132.62 -332.111 1153.26 -309.769L1474.57 38.0222C1496.62 61.8928 1511.03 91.8106 1515.96 123.934L1584.74 572.594C1589.76 605.349 1584.68 638.856 1570.17 668.649L1368.23 1083.38C1354.46 1111.67 1332.78 1135.37 1305.83 1151.62L889.149 1402.78C863.751 1418.09 834.657 1426.18 805.002 1426.18H305.112C275.457 1426.18 246.363 1418.09 220.965 1402.78L-195.716 1151.62C-222.669 1135.37 -244.343 1111.67 -258.12 1083.38L-460.054 668.649C-474.561 638.856 -479.642 605.349 -474.621 572.594L-405.845 123.934C-400.92 91.8106 -386.506 61.8928 -364.453 38.0222L-43.1455 -309.769C-22.5045 -332.111 3.97643 -348.232 33.3023 -356.309L511.778 -488.081Z" fill="#683B71"/>
</svg>
