<svg width="518" height="538" viewBox="0 0 518 538" fill="none" xmlns="http://www.w3.org/2000/svg">
<path d="M39.6551 3.50398C48.2025 -0.0213038 57.7975 -0.0213094 66.3449 3.50397L369.817 128.668C378.398 132.207 385.222 139.01 388.787 147.581L514.408 449.557C517.987 458.162 517.987 467.838 514.408 476.443L388.787 778.419C385.222 786.99 378.398 793.793 369.817 797.332L66.3449 922.496C57.7975 926.021 48.2025 926.021 39.6551 922.496L-263.817 797.332C-272.398 793.793 -279.222 786.99 -282.787 778.419L-408.408 476.443C-411.987 467.838 -411.987 458.162 -408.408 449.557L-282.787 147.581C-279.222 139.01 -272.398 132.207 -263.817 128.668L39.6551 3.50398Z" fill="#90109C"/>
</svg>
