<svg width="163" height="165" viewBox="0 0 163 165" fill="none" xmlns="http://www.w3.org/2000/svg">
<path d="M12.9882 -79.5163C17.5246 -81.1232 22.4754 -81.1232 27.0118 -79.5163L114.402 -48.5606C119.61 -46.7158 123.881 -42.8927 126.29 -37.9201L160.566 32.8457C163.366 38.6273 163.366 45.3727 160.566 51.1543L126.29 121.92C123.881 126.893 119.61 130.716 114.402 132.561L27.0118 163.516C22.4754 165.123 17.5246 165.123 12.9882 163.516L-74.4018 132.561C-79.6099 130.716 -83.8811 126.893 -86.2897 121.92L-120.566 51.1543C-123.366 45.3727 -123.366 38.6273 -120.566 32.8457L-86.2897 -37.9201C-83.8811 -42.8927 -79.6099 -46.7158 -74.4018 -48.5606L12.9882 -79.5163Z" fill="#49084F"/>
</svg>
