<svg width="101" height="101" viewBox="0 0 101 101" fill="none" xmlns="http://www.w3.org/2000/svg">
<circle cx="50.5" cy="50.5" r="48" fill="#5DDA5A" stroke="#49084F" stroke-width="5"/>
<path d="M28 28.6471V73.8235C28 75.3212 28.5926 76.7576 29.6475 77.8166C30.7024 78.8756 32.1332 79.4706 33.625 79.4706H67.375C68.8668 79.4706 70.2976 78.8756 71.3525 77.8166C72.4074 76.7576 73 75.3212 73 73.8235V40.9068C72.9999 40.1545 72.8501 39.4098 72.5593 38.7165C72.2686 38.0231 71.8428 37.395 71.3069 36.8692L58.8194 24.6094C57.7685 23.5779 56.3572 23.0002 54.8875 23H33.625C32.1332 23 30.7024 23.595 29.6475 24.654C28.5926 25.713 28 27.1494 28 28.6471V28.6471Z" stroke="#49084F" stroke-width="6" stroke-linecap="round" stroke-linejoin="round"/>
<path d="M56.125 23V34.25C56.125 35.7418 56.7176 37.1726 57.7725 38.2275C58.8274 39.2824 60.2582 39.875 61.75 39.875H73" stroke="#49084F" stroke-width="6" stroke-linejoin="round"/>
</svg>
