<svg width="98" height="98" viewBox="0 0 98 98" fill="none" xmlns="http://www.w3.org/2000/svg">
<circle cx="49" cy="49" r="46.5" fill="#49084F" stroke="#49084F" stroke-width="5"/>
<path fill-rule="evenodd" clip-rule="evenodd" d="M49.5 4C24.9137 4 5 24.188 5 49.1129C5 69.0754 17.7381 85.9364 35.4269 91.9138C37.6519 92.3086 38.4862 90.9552 38.4862 89.7709C38.4862 88.6995 38.4306 85.1469 38.4306 81.3687C27.25 83.4551 24.3575 78.6055 23.4675 76.0679C22.9669 74.7709 20.7975 70.7671 18.9062 69.6957C17.3488 68.8498 15.1237 66.7634 18.8506 66.707C22.355 66.6506 24.8581 69.9777 25.6925 71.331C29.6975 78.1544 36.0944 76.2371 38.6531 75.0529C39.0425 72.1205 40.2106 70.1468 41.49 69.019C31.5888 67.8912 21.2425 64.0002 21.2425 46.7445C21.2425 41.8385 22.9669 37.7783 25.8038 34.6204C25.3588 33.4926 23.8012 28.8685 26.2487 22.6655C26.2487 22.6655 29.9756 21.4813 38.4862 27.2895C42.0462 26.2745 45.8287 25.767 49.6112 25.767C53.3937 25.767 57.1762 26.2745 60.7362 27.2895C69.2469 21.4249 72.9737 22.6655 72.9737 22.6655C75.4212 28.8685 73.8638 33.4926 73.4188 34.6204C76.2556 37.7783 77.98 41.7821 77.98 46.7445C77.98 64.0566 67.5781 67.8912 57.6769 69.019C59.29 70.4288 60.6806 73.1356 60.6806 77.3649C60.6806 83.3987 60.625 88.2484 60.625 89.7709C60.625 90.9552 61.4594 92.3649 63.6844 91.9138C72.5183 88.8902 80.1945 83.1344 85.6328 75.4565C91.071 67.7786 93.9973 58.5652 94 49.1129C94 24.188 74.0863 4 49.5 4Z" fill="#5DDA5A"/>
</svg>
