<svg width="101" height="101" viewBox="0 0 101 101" fill="none" xmlns="http://www.w3.org/2000/svg">
<circle cx="50.5" cy="50.5" r="48" fill="#49084F" stroke="#49084F" stroke-width="5"/>
<path d="M50.5 5C25.3707 5 5 25.3707 5 50.5C5 75.6293 25.3707 96 50.5 96C75.6293 96 96 75.6293 96 50.5C96 25.3707 75.6293 5 50.5 5ZM39.362 69.3588H30.1482V39.708H39.362V69.3588ZM34.6982 36.068C31.7881 36.068 29.9065 34.0062 29.9065 31.4564C29.9065 28.8543 31.845 26.8542 34.8167 26.8542C37.7884 26.8542 39.6084 28.8543 39.6653 31.4564C39.6653 34.0062 37.7884 36.068 34.6982 36.068ZM73.013 69.3588H63.7993V52.9267C63.7993 49.1018 62.4627 46.5045 59.1308 46.5045C56.5856 46.5045 55.0737 48.2629 54.4054 49.9549C54.159 50.5569 54.0973 51.41 54.0973 52.2584V69.3541H44.8789V49.1634C44.8789 45.4618 44.7604 42.3669 44.6371 39.7032H52.6423L53.0641 43.8219H53.249C54.4623 41.8882 57.434 39.0349 62.4058 39.0349C68.4678 39.0349 73.013 43.0968 73.013 51.8271V69.3588Z" fill="#5DDA5A"/>
</svg>
