<svg width="1319" height="933" viewBox="0 0 1319 933" fill="none" xmlns="http://www.w3.org/2000/svg">
<path d="M259.116 24.6116C283.338 8.98392 311.55 0.666421 340.375 0.654419L755.32 0.481655C785.987 0.468887 815.92 9.85579 841.088 27.3777L1152.87 244.438C1180.87 263.934 1201.39 292.395 1211.04 325.124L1312.04 667.703C1321.69 700.431 1319.89 735.472 1306.94 767.041L1162.78 1118.52C1151.15 1146.9 1131.09 1171.02 1105.32 1187.65L756.652 1412.61C732.431 1428.23 704.219 1436.55 675.393 1436.56L260.448 1436.74C229.782 1436.75 199.848 1427.36 174.681 1409.84L-137.097 1192.78C-165.1 1173.28 -185.62 1144.82 -195.269 1112.09L-296.27 769.514C-305.919 736.785 -304.121 701.745 -291.173 670.176L-147.015 318.694C-135.378 290.322 -115.325 266.197 -89.5561 249.572L259.116 24.6116Z" fill="#FF9900"/>
</svg>
