<svg width="728" height="427" viewBox="0 0 728 427" fill="none" xmlns="http://www.w3.org/2000/svg">
<path d="M390.303 5.00638C409.91 -1.49082 431.09 -1.49083 450.697 5.00636L689.235 84.0509C713.014 91.9305 732.771 108.793 744.289 131.038L830.146 296.86C844.478 324.542 844.478 357.459 830.146 385.14L744.289 550.962C732.771 573.207 713.014 590.069 689.235 597.949L450.697 676.994C431.09 683.491 409.91 683.491 390.303 676.994L151.765 597.949C127.986 590.069 108.229 573.207 96.7114 550.962L10.8542 385.14C-3.47833 357.458 -3.47832 324.541 10.8542 296.86L96.7114 131.038C108.229 108.793 127.986 91.9305 151.765 84.0509L390.303 5.00638Z" fill="#F5A42C"/>
</svg>
