<svg width="53" height="53" viewBox="0 0 53 53" fill="none" xmlns="http://www.w3.org/2000/svg">
<path d="M26.5 11.0415L27.6704 9.87109C27.3598 9.56093 26.9389 9.38671 26.5 9.38671C26.0611 9.38671 25.6401 9.56093 25.3296 9.87109L26.5 11.0415ZM26.5 28.7082L25.3296 29.8786C25.6401 30.1887 26.0611 30.363 26.5 30.363C26.9389 30.363 27.3598 30.1887 27.6704 29.8786L26.5 28.7082ZM20.9129 14.2878C20.6203 14.6017 20.4611 15.017 20.4686 15.4461C20.4762 15.8752 20.65 16.2845 20.9535 16.588C21.2569 16.8915 21.6663 17.0653 22.0954 17.0728C22.5245 17.0804 22.9398 16.9211 23.2537 16.6286L20.9129 14.2878ZM29.7462 16.6286C29.8979 16.7913 30.0807 16.9218 30.2839 17.0124C30.487 17.1029 30.7064 17.1516 30.9287 17.1555C31.1511 17.1594 31.372 17.1185 31.5783 17.0352C31.7845 16.9519 31.9718 16.8279 32.1291 16.6706C32.2864 16.5134 32.4104 16.326 32.4937 16.1198C32.577 15.9136 32.6179 15.6927 32.614 15.4703C32.61 15.2479 32.5614 15.0286 32.4708 14.8254C32.3803 14.6222 32.2498 14.4394 32.0871 14.2878L29.7462 16.6286ZM23.2537 23.1211C23.1021 22.9584 22.9192 22.8278 22.7161 22.7373C22.5129 22.6468 22.2936 22.5981 22.0712 22.5942C21.8488 22.5903 21.6279 22.6312 21.4217 22.7145C21.2155 22.7978 21.0281 22.9218 20.8709 23.079C20.7136 23.2363 20.5896 23.4237 20.5063 23.6299C20.423 23.8361 20.3821 24.057 20.386 24.2794C20.3899 24.5018 20.4386 24.7211 20.5291 24.9243C20.6197 25.1274 20.7502 25.3103 20.9129 25.4619L23.2537 23.1211ZM32.0871 25.4619C32.2498 25.3103 32.3803 25.1274 32.4708 24.9243C32.5614 24.7211 32.61 24.5018 32.614 24.2794C32.6179 24.057 32.577 23.8361 32.4937 23.6299C32.4104 23.4237 32.2864 23.2363 32.1291 23.079C31.9718 22.9218 31.7845 22.7978 31.5783 22.7145C31.372 22.6312 31.1511 22.5903 30.9287 22.5942C30.7064 22.5981 30.487 22.6468 30.2839 22.7373C30.0807 22.8278 29.8979 22.9584 29.7462 23.1211L32.0871 25.4619ZM7.17706 22.0832V30.9165H10.4896V22.0832H7.17706ZM45.8229 30.9165V22.0832H42.5104V30.9165H45.8229ZM24.8437 11.0415V28.7082H28.1562V11.0415H24.8437ZM25.3296 9.87109L20.9129 14.2878L23.2537 16.6286L27.6704 12.2119L25.3296 9.87109ZM25.3296 12.2119L29.7462 16.6286L32.0871 14.2878L27.6704 9.87109L25.3296 12.2119ZM27.6704 27.5378L23.2537 23.1211L20.9129 25.4619L25.3296 29.8786L27.6704 27.5378ZM27.6704 29.8786L32.0871 25.4619L29.7462 23.1211L25.3296 27.5378L27.6704 29.8786ZM45.8229 22.0832C45.8229 16.9584 43.7871 12.0436 40.1633 8.41981C36.5396 4.79606 31.6247 2.76025 26.5 2.76025V6.07275C30.7462 6.07275 34.8185 7.75956 37.8211 10.7621C40.8236 13.7646 42.5104 17.8369 42.5104 22.0832H45.8229ZM26.5 50.2394C29.0375 50.2394 31.5502 49.7396 33.8945 48.7686C36.2389 47.7975 38.369 46.3742 40.1633 44.5799C41.9576 42.7856 43.381 40.6554 44.352 38.3111C45.3231 35.9667 45.8229 33.454 45.8229 30.9165H42.5104C42.5104 35.1627 40.8236 39.235 37.8211 42.2376C34.8185 45.2401 30.7462 46.9269 26.5 46.9269V50.2394ZM7.17706 30.9165C7.17706 36.0413 9.21286 40.9561 12.8366 44.5799C16.4604 48.2036 21.3752 50.2394 26.5 50.2394V46.9269C22.2538 46.9269 18.1814 45.2401 15.1789 42.2376C12.1764 39.235 10.4896 35.1627 10.4896 30.9165H7.17706ZM10.4896 22.0832C10.4896 17.8369 12.1764 13.7646 15.1789 10.7621C18.1814 7.75956 22.2538 6.07275 26.5 6.07275V2.76025C21.3752 2.76025 16.4604 4.79606 12.8366 8.41981C9.21286 12.0436 7.17706 16.9584 7.17706 22.0832H10.4896Z" fill="#B476C1"/>
</svg>
